<?xml version="1.0"?>
<svg xmlns="http://www.w3.org/2000/svg" height="512px" viewBox="0 -29 511.9999 511" width="512px" class=""><g><path d="m280.4375 10.5h-71.464844c-6.164062 2.726562-10.472656 8.886719-10.472656 16.0625v396.875c0 9.695312 7.859375 17.558594 17.558594 17.558594h71.464844c6.164062-2.722656 10.472656-8.882813 10.472656-16.058594v-396.875c0-9.699219-7.859375-17.5625-17.558594-17.5625zm0 0" fill="#ff5d5d" data-original="#FF5D5D" class="active-path" style="fill:#C9C8C8" data-old_color="#FF5D5D"/><path d="m51.5 28.5625v396.875c0 8.285156 5.746094 15.210938 13.464844 17.058594h71.472656c9.699219 0 17.5625-7.863282 17.5625-17.558594v-396.875c0-8.289062-5.746094-15.214844-13.464844-17.0625h-71.476562c-9.695313 0-17.558594 7.863281-17.558594 17.5625zm0 0" fill="#36d28f" data-original="#36D28F" class="" style="fill:#C9C8C8" data-old_color="#36D28F"/><path d="m10 114.109375h144v224.777344h-144zm0 0" fill="#fff" data-original="#FFF" class=""/><path d="m154.109375 114.109375h144v224.777344h-144zm0 0" fill="#fff" data-original="#FFF" class=""/><path d="m96.628906 177.921875c-10.910156 3.859375-18.726562 14.257813-18.726562 26.492187 0 10.15625 5.390625 19.054688 13.46875 23.988282 10.90625-3.859375 18.726562-14.257813 18.726562-26.488282 0-10.160156-5.390625-19.054687-13.46875-23.992187zm0 0" fill="#ff5d5d" data-original="#FF5D5D" class="active-path" style="fill:#C9C8C8" data-old_color="#FF5D5D"/><path d="m418.210938 89.472656-68.25 18.289063c-7.863282 2.105469-12.53125 10.1875-10.421876 18.050781l83.28125 310.8125 68.253907-18.285156c7.863281-2.109375 12.527343-10.191406 10.421875-18.054688zm0 0" fill="#ffc66c" data-original="#FFC66C" class="" style="fill:#C9C8C8" data-old_color="#C9C8C6"/><path d="m317.21875 179.574219 116.738281-31.277344 48.824219 182.226563-116.738281 31.28125zm0 0" fill="#fff" data-original="#FFF" class=""/><path d="m423.597656 255.050781c0 13.023438-10.558594 23.582031-23.582031 23.582031s-23.582031-10.558593-23.582031-23.582031c0-13.027343 10.558594-23.585937 23.582031-23.585937s23.582031 10.558594 23.582031 23.585937zm0 0" fill="#ffc66c" data-original="#FFC66C" class="" style="fill:#C9C8C8" data-old_color="#C9C8C6"/><path d="m50.5 124.109375c2.628906 0 5.210938-1.070313 7.070312-2.929687 1.859376-1.863282 2.929688-4.441407 2.929688-7.070313 0-2.632813-1.070312-5.210937-2.929688-7.070313-1.859374-1.859374-4.441406-2.929687-7.070312-2.929687s-5.210938 1.070313-7.070312 2.929687c-1.859376 1.859376-2.929688 4.4375-2.929688 7.070313 0 2.628906 1.070312 5.207031 2.929688 7.070313 1.859374 1.859374 4.441406 2.929687 7.070312 2.929687zm0 0" data-original="#000000" class="" style="fill:#000000"/><path d="m43.902344 201.914062c0 21.003907 17.089844 38.097657 38.097656 38.097657s38.097656-17.089844 38.097656-38.097657c0-21.007812-17.089844-38.097656-38.097656-38.097656s-38.097656 17.089844-38.097656 38.097656zm38.097656-18.097656c9.976562 0 18.097656 8.117188 18.097656 18.097656 0 9.976563-8.121094 18.097657-18.097656 18.097657-9.980469 0-18.097656-8.121094-18.097656-18.097657 0-9.980468 8.117187-18.097656 18.097656-18.097656zm0 0" data-original="#000000" class="" style="fill:#000000"/><path d="m109.804688 269.179688h-55.609376c-5.523437 0-10 4.476562-10 10 0 5.523437 4.476563 10 10 10h55.609376c5.519531 0 10-4.476563 10-10 0-5.523438-4.476563-10-10-10zm0 0" data-original="#000000" class="" style="fill:#000000"/><path d="m253.804688 265.667969h-55.609376c-5.523437 0-10 4.476562-10 10 0 5.523437 4.476563 10 10 10h55.609376c5.519531 0 10-4.476563 10-10 0-5.523438-4.480469-10-10-10zm0 0" data-original="#000000" class="" style="fill:#000000"/><path d="m253.804688 216.5h-55.609376c-5.523437 0-10 4.476562-10 10 0 5.519531 4.476563 10 10 10h55.609376c5.519531 0 10-4.480469 10-10 0-5.523438-4.480469-10-10-10zm0 0" data-original="#000000" class="" style="fill:#000000"/><path d="m198.195312 187.328125h55.605469c5.523438 0 10-4.476563 10-10s-4.476562-10-10-10h-55.605469c-5.523437 0-10 4.476563-10 10s4.476563 10 10 10zm0 0" data-original="#000000" class="" style="fill:#000000"/><path d="m439.988281 208.046875c0 2.628906 1.066407 5.210937 2.929688 7.070313 1.859375 1.859374 4.4375 2.929687 7.070312 2.929687 2.628907 0 5.207031-1.070313 7.066407-2.929687 1.863281-1.859376 2.933593-4.441407 2.933593-7.070313s-1.070312-5.210937-2.933593-7.070313c-1.859376-1.859374-4.4375-2.929687-7.066407-2.929687-2.632812 0-5.210937 1.070313-7.070312 2.929687-1.863281 1.859376-2.929688 4.441407-2.929688 7.070313zm0 0" data-original="#000000" class="" style="fill:#000000"/><path d="m511.152344 397.699219-41.742188-155.789063c-1.429687-5.335937-6.914062-8.503906-12.246094-7.070312-5.335937 1.425781-8.5 6.910156-7.074218 12.246094l20.464844 76.367187-97.425782 26.105469-43.652344-162.914063 97.425782-26.105469 3.425781 12.792969c1.429687 5.335938 6.917969 8.5 12.25 7.070313 5.332031-1.429688 8.5-6.910156 7.070313-12.246094l-24.707032-92.214844c-3.53125-13.175781-17.125-21.023437-30.300781-17.492187l-86.644531 23.214843v-53.601562c0-15.199219-12.363282-27.5625-27.558594-27.5625h-108.878906c-6.667969 0-12.789063 2.382812-17.558594 6.335938-4.773438-3.953126-10.894531-6.335938-17.5625-6.335938h-108.875c-15.199219 0-27.5625 12.363281-27.5625 27.5625v396.875c0 15.195312 12.363281 27.558594 27.5625 27.558594h108.875c6.667969 0 12.789062-2.378906 17.5625-6.335938 4.769531 3.957032 10.890625 6.335938 17.558594 6.335938h108.878906c15.195312 0 27.558594-12.363282 27.558594-27.558594v-241.183594l67.097656 250.402344c1.710938 6.382812 5.800781 11.71875 11.523438 15.019531 3.816406 2.203125 8.042968 3.328125 12.332031 3.328125 2.148437 0 4.3125-.285156 6.441406-.855468l88.269531-23.652344c13.175782-3.53125 21.023438-17.121094 17.492188-30.296875zm-347.152344-273.589844h123.996094v204.777344h-123.996094zm7.558594-103.609375h108.878906c4.167969 0 7.558594 3.390625 7.558594 7.5625v76.046875h-123.996094v-76.046875c0-4.171875 3.390625-7.5625 7.558594-7.5625zm-143.996094 0h108.875c4.167969 0 7.5625 3.390625 7.5625 7.5625v76.046875h-58c-5.523438 0-10 4.476563-10 10s4.476562 10 10 10h58v204.777344h-124v-300.824219c0-4.171875 3.390625-7.5625 7.5625-7.5625zm108.875 411.996094h-108.875c-4.171875 0-7.5625-3.390625-7.5625-7.558594v-76.050781h124v76.050781c0 4.167969-3.394531 7.558594-7.5625 7.558594zm144 0h-108.878906c-4.167969 0-7.558594-3.390625-7.558594-7.558594v-76.050781h123.996094v76.050781c0 4.167969-3.390625 7.558594-7.558594 7.558594zm31.109375-331.078125 88.269531-23.652344c2.519532-.675781 5.128906.828125 5.804688 3.351563l16.105468 60.101562-97.425781 26.105469-16.105469-60.101563c-.675781-2.523437.828126-5.125 3.351563-5.804687zm176.9375 307.261719-88.269531 23.652343c-1.648438.441407-2.960938-.109375-3.597656-.472656-.632813-.367187-1.765626-1.230469-2.207032-2.878906l-16.101562-60.101563 97.421875-26.105468 16.105469 60.101562c.675781 2.523438-.828126 5.128906-3.351563 5.804688zm0 0" data-original="#000000" class="" style="fill:#000000"/><path d="m391.324219 222.609375c-17.886719 4.792969-28.539063 23.246094-23.746094 41.132813 2.320313 8.664062 7.878906 15.90625 15.644531 20.390624 5.175782 2.988282 10.917969 4.515626 16.738282 4.515626 2.917968 0 5.855468-.382813 8.746093-1.160157 17.886719-4.792969 28.539063-23.242187 23.746094-41.128906-4.792969-17.890625-23.242187-28.542969-41.128906-23.75zm20.453125 39.230469c-1.8125 3.144531-4.742188 5.390625-8.246094 6.328125-7.234375 1.941406-14.699219-2.367188-16.636719-9.601563s2.371094-14.699218 9.605469-16.636718c1.171875-.3125 2.351562-.464844 3.511719-.464844 5.996093 0 11.5 4.007812 13.125 10.070312.9375 3.503906.457031 7.164063-1.359375 10.304688zm0 0" data-original="#000000" class="" style="fill:#000000"/></g> </svg>
